inDegrees=no
num_controls=7
num_derivatives=13
num_iterations=157
num_multipliers=7
num_parameters=0
num_slacks=7
num_states=26
objective=0.497309
objective_accelerations=0.038460
objective_balance=0.003402
objective_effort=0.036958
objective_height=0.413847
objective_ligament=0.004642
solver_duration=1823.800687
status=Solve_Succeeded
success=true
DataType=double
version=3
OpenSimVersion=4.5
endheader
time	/jointset/ground_pelvis/pelvis_tilt/value	/jointset/ground_pelvis/pelvis_tx/value	/jointset/ground_pelvis/pelvis_ty/value	/jointset/hip_r/hip_flexion_r/value	/jointset/hip_r/hip_adduction_r/value	/jointset/hip_r/hip_rotation_r/value	/jointset/back/lumbar_extension/value	/jointset/patellofemoral_r/patellar_flexion_r/value	/jointset/knee_r/knee_flexion_r/value	/jointset/knee_r/knee_adduction_r/value	/jointset/knee_r/knee_rotation_r/value	/jointset/ankle_r/ankle_angle_r/value	/jointset/subtalar_r/subtalar_angle_r/value	/jointset/ground_pelvis/pelvis_tilt/speed	/jointset/ground_pelvis/pelvis_tx/speed	/jointset/ground_pelvis/pelvis_ty/speed	/jointset/hip_r/hip_flexion_r/speed	/jointset/hip_r/hip_adduction_r/speed	/jointset/hip_r/hip_rotation_r/speed	/jointset/back/lumbar_extension/speed	/jointset/patellofemoral_r/patellar_flexion_r/speed	/jointset/knee_r/knee_flexion_r/speed	/jointset/knee_r/knee_adduction_r/speed	/jointset/knee_r/knee_rotation_r/speed	/jointset/ankle_r/ankle_angle_r/speed	/jointset/subtalar_r/subtalar_angle_r/speed	/forceset/tau_hip_flexion_r	/forceset/tau_hip_adduction_r	/forceset/tau_hip_rotation_r	/forceset/tau_knee_flexion_r	/forceset/tau_ankle_angle_r	/forceset/tau_subtalar_angle_r	/forceset/tau_lumbar_extension	lambda_cid13_p0	lambda_cid14_p0	lambda_cid14_p1	lambda_cid14_p2	lambda_cid14_p3	lambda_cid14_p4	lambda_cid14_p5	/jointset/ground_pelvis/pelvis_tilt/accel	/jointset/ground_pelvis/pelvis_tx/accel	/jointset/ground_pelvis/pelvis_ty/accel	/jointset/hip_r/hip_flexion_r/accel	/jointset/hip_r/hip_adduction_r/accel	/jointset/hip_r/hip_rotation_r/accel	/jointset/back/lumbar_extension/accel	/jointset/patellofemoral_r/patellar_flexion_r/accel	/jointset/knee_r/knee_flexion_r/accel	/jointset/knee_r/knee_adduction_r/accel	/jointset/knee_r/knee_rotation_r/accel	/jointset/ankle_r/ankle_angle_r/accel	/jointset/subtalar_r/subtalar_angle_r/accel	gamma_cid13_p0	gamma_cid14_p0	gamma_cid14_p1	gamma_cid14_p2	gamma_cid14_p3	gamma_cid14_p4	gamma_cid14_p5
1	-0.2086135814090115	0.02545824040905113	0.7241665920404515	1.196333209617071	-0.2502125319098828	0.004195792081732081	-0.4362504120316186	1.233826115123569	1.233826115127145	0.04334791977889769	0.1745326532059866	0.4363228468240787	0.07826715517277107	-0.0009014646587950063	0.005669577313505239	0.01444406062700614	-0.04113997851763263	0.0003181339849533071	-0.01290155995434744	0.00769128852751798	-0.04843963113906113	-0.0484396311390636	-0.0001196171902966341	-6.607038296369225e-06	-0.00822406795162945	-0.002003918597398041	-0.2177150870802839	0.01350744368935355	0.02100874780210164	-0.4792732699604335	-0.0155277762530251	0.003955223409070363	0.2588990559990247	-0.9295195030762766	-52.91907865870934	-7.154211568341901	1.150751265980985	15.75238315677508	-783.8972505152702	63.70110341519594	1.017601507547498	0.1164827241227097	1.437798706387467	-4.516577575092815	0.02601481622358362	-1.094116644844733	0.4126291312930612	-4.734459416883454	-4.734459416883543	0.168014917712117	0.002369430068450105	-1.450151294663293	-0.4320968383046412	4.754408142598162e-11	-4.304707313021618e-09	6.877219152171123e-10	-6.719503030291838e-10	8.062737308487621e-09	-5.678981298371872e-09	-1.867170804920415e-09
1.01	-0.2085728041209114	0.02552079036891774	0.7243827673702762	1.195697211849345	-0.2502079793048033	0.004012098633983614	-0.4361509057601278	1.233105086770687	1.233105086772675	0.04335501710180623	0.1745325810653346	0.4361680723184153	0.07822562541037667	0.009013055029053361	0.006846041518369224	0.02878895594054124	-0.08602885465082792	0.0005933384256087768	-0.02383833395390052	0.01233395578675417	-0.09578659000505518	-0.09578659000506594	0.001543337137082003	-7.599379383383494e-06	-0.02273904638876464	-0.006302253354017416	-0.2185024381934546	0.01373950719046956	0.02100529767587472	-0.4783777903313676	-0.01671478241589315	0.004076814003635683	0.2596318855242755	-0.9454829978619709	-53.31072964853563	-7.160957469889627	1.141520679467576	15.95801556749988	-784.2121415977167	63.63306079410435	0.9717973820907657	0.1190735534633143	1.432525705549376	-4.470434547182635	0.02841585653197407	-1.093639564046377	0.508684025645005	-4.737896698902197	-4.737896698903362	0.1660749980597947	-0.001300839431631527	-1.453403801944826	-0.4287341655136668	-3.765205467711746e-11	-3.965522353232117e-09	5.860939838783012e-09	-3.911774014633457e-09	6.297853032224293e-09	-9.108749999074015e-09	3.638735561305578e-09
1.02	-0.2084341975993947	0.025595274027792	0.7247423298055788	1.194613246937338	-0.2502006461356082	0.00371900108893242	-0.4360012531155632	1.231909972313656	1.231909972314057	0.04337887182954963	0.1745325055466244	0.4358679014916391	0.07814110582618143	0.01866438202439187	0.008056317115033121	0.04312148172258903	-0.1307334073740145	0.0008742468080824303	-0.03478237941488505	0.01772056314223473	-0.1432568519688423	-0.1432568519688597	0.003231863776823298	-7.282649844558174e-06	-0.03730333217414739	-0.01060188295756005	-0.2192897893066253	0.01397157069158443	0.02100184754965466	-0.4774823107023018	-0.01790178857876155	0.004198404598198831	0.2603647150495265	-0.9722776735191763	-53.71301084927386	-7.166713118412139	1.128875374212523	16.18075215032537	-784.6988280381776	63.5741620834493	0.9649629690455241	0.1232450024826945	1.435324800090006	-4.479712893091071	0.02715560458721963	-1.095570937131024	0.5614171505419338	-4.759120036442069	-4.759120036441836	0.1731293801846486	0.002631244193619302	-1.460012764312801	-0.4323558076892917	-1.483141218994532e-10	-4.632269429956786e-09	7.158223451235726e-09	-6.065527377275388e-09	7.001232651301521e-09	-1.133847601678584e-08	3.328447504846321e-09
1.03	-0.2082003433353742	0.02568207489107743	0.7252450844303403	1.193083195995248	-0.2501904666319031	0.003316455539195164	-0.4357940475076997	1.230239703092151	1.230239703092723	0.04341972180307053	0.1745324451624427	0.4354219300579207	0.07801364148902021	0.02806487086329337	0.009314035245662249	0.05741992882650113	-0.1752391880344989	0.001163796826443103	-0.04572367929171301	0.02384484048099611	-0.1908010105206806	-0.1908010105206845	0.004941326141928024	-5.276402679503828e-06	-0.05189040295622337	-0.01488494985618869	-0.2197306880568998	0.0141430347572212	0.02099833412637674	-0.4764223617602124	-0.01862222370674835	0.004252557210165143	0.2608260719646233	-1.010368296070113	-53.93816421543553	-7.17236544444977	1.118066206884851	16.23921965907138	-784.7219390688933	63.47717051724439	0.9213521336757794	0.1285637242742599	1.425674780434056	-4.4303717639068	0.03017572584261424	-1.092953952413666	0.6565753331159749	-4.752666440332893	-4.752666440331027	0.1703356414641034	-0.001088379887741987	-1.457972377944985	-0.4253764789017807	-2.592360455617814e-10	-5.309281119298953e-09	8.415956713575018e-09	-8.208198389417697e-09	7.729798636657747e-09	-1.355595670099776e-08	2.958810525706568e-09
1.04	-0.2078737321244915	0.02578175863685339	0.7258905375491193	1.191109215024278	-0.2501773274229381	0.00280458810279881	-0.4355218706649339	1.228093871749972	1.228093871750715	0.04347776259560008	0.1745323901017593	0.4348301042878236	0.07784352761328225	0.03721577139672732	0.01063289361313787	0.07166118052610154	-0.2195194131501716	0.001466187860088747	-0.05664675674674041	0.03071481012266699	-0.2383692761036467	-0.2383692761036387	0.006670027578661726	-6.217950142099345e-06	-0.06647419944989869	-0.01913179067290252	-0.2201715868071746	0.01431449882285781	0.020994820703103	-0.4753624128181229	-0.01934265883473514	0.004306709822131129	0.2612874288797201	-1.060396218518258	-54.17398359011353	-7.176906893941288	1.1036781609179	16.31438322788379	-784.9176371613539	63.38981062250722	0.9150453079520112	0.1354730498519955	1.423885719227665	-4.43460178412873	0.02972380764421406	-1.091926452770912	0.7105556111238335	-4.763941442667648	-4.763941442667728	0.1769771945104434	0.002041685268088875	-1.459357906632664	-0.4251105913063288	-5.127714695845679e-10	-5.925266261438773e-09	8.996991590142054e-09	-1.109459835036619e-08	8.274776449017588e-09	-1.580844147549282e-08	2.278351034861266e-09
